<svg width="322" height="68" viewBox="0 0 322 68" fill="none" xmlns="http://www.w3.org/2000/svg">
<path d="M29.459 55.1697C29.1416 55.1697 28.8444 55.1107 28.5672 54.9926C28.2901 54.8701 28.0464 54.7017 27.8363 54.4874C27.6262 54.273 27.4608 54.0259 27.3401 53.7459C27.2239 53.4616 27.1658 53.1598 27.1658 52.8405C27.1658 52.5212 27.2239 52.2194 27.3401 51.935C27.4563 51.6507 27.6195 51.3992 27.8296 51.1805C28.0397 50.9574 28.2833 50.7825 28.5605 50.6556C28.8377 50.5288 29.1372 50.4653 29.459 50.4653C29.8524 50.4653 30.219 50.5594 30.5587 50.7475C30.8985 50.9356 31.1935 51.2199 31.4438 51.6004L30.7331 52.0531C30.5632 51.7907 30.3687 51.6004 30.1497 51.4823C29.9307 51.3598 29.7004 51.2986 29.459 51.2986C29.1863 51.2986 28.9405 51.3686 28.7214 51.5086C28.5069 51.6485 28.3348 51.8366 28.2051 52.0728C28.0799 52.3047 28.0174 52.5606 28.0174 52.8405C28.0174 53.033 28.0554 53.2189 28.1314 53.3982C28.2074 53.5775 28.3102 53.7394 28.4398 53.8837C28.5739 54.0237 28.7281 54.1352 28.9025 54.2184C29.0768 54.3015 29.2623 54.343 29.459 54.343C29.7451 54.343 29.9731 54.3058 30.143 54.2315C30.3173 54.1571 30.4649 54.0303 30.5856 53.8509V53.5491H29.8278V52.7749H31.4371V54.0609C31.2449 54.4502 30.9856 54.7323 30.6593 54.9073C30.333 55.0823 29.9329 55.1697 29.459 55.1697Z" fill="white"/>
<path d="M21.8182 51.2046H20.5049V55.1697H19.709V51.2046H18.3958V50.4653H21.8182V51.2046Z" fill="white"/>
<path d="M12.4063 51.2046H11.0931V55.1697H10.2972V51.2046H8.98389V50.4653H12.4063V51.2046Z" fill="white"/>
<path d="M0 37.2075L4.27807 34V68H0V37.2075Z" fill="white"/>
<path d="M8.55615 56.4528H12.8342V67.9999H8.55615V56.4528Z" fill="white"/>
<path d="M27.1658 56.4528H31.4438V67.9999H27.1658V56.4528Z" fill="white"/>
<path d="M35.7219 34L40 37.2075V68H35.7219V34Z" fill="white"/>
<path d="M27.1658 25.6604L31.4438 29.5094V49.1824H27.1658V25.6604Z" fill="white"/>
<path d="M12.8342 25.6604L8.55615 29.5094V49.1824H12.8342V25.6604Z" fill="white"/>
<path d="M17.1123 56.4528H22.8877V67.9999H17.1123V56.4528Z" fill="white"/>
<path d="M17.1123 14.327H18.9305L20 13.2578L21.0695 14.327H22.8877V49.1823H17.1123V14.327Z" fill="white"/>
<path d="M37.3176 7.27098C35.1301 4.97691 32.4673 3.14539 29.4995 1.89343C26.5316 0.641467 23.3239 -0.00340483 20.0812 1.35192e-05C16.8386 0.00343187 13.6324 0.655065 10.6674 1.91328C7.70239 3.1715 5.04384 5.00863 2.86157 7.3073L3.52181 7.88305C5.62052 5.67238 8.1773 3.90558 11.0288 2.69554C13.8803 1.48549 16.9637 0.858809 20.0822 0.855522C23.2007 0.852234 26.2856 1.47242 29.1399 2.67645C31.9941 3.88048 34.5549 5.64188 36.6587 7.84812L37.3176 7.27098Z" fill="white"/>
<path d="M33.675 10.913C32.0269 8.9018 29.952 7.28221 27.6006 6.17145C25.2492 5.06068 22.6801 4.48655 20.0794 4.49062C17.4787 4.49469 14.9114 5.07686 12.5635 6.19498C10.2156 7.3131 8.14575 8.93918 6.50391 10.9555L7.16759 11.4956C8.72934 9.57765 10.6982 8.0309 12.9315 6.96734C15.1649 5.90377 17.6069 5.35001 20.0807 5.34613C22.5545 5.34226 24.9983 5.88838 27.2349 6.94495C29.4716 8.00152 31.4453 9.5421 33.013 11.4551L33.675 10.913Z" fill="white"/>
<path d="M30.1721 14.4142C28.9927 12.8555 27.4673 11.592 25.716 10.7234C23.9647 9.85479 22.0355 9.40477 20.0806 9.40884C18.1256 9.41291 16.1983 9.87096 14.4507 10.7469C12.7031 11.6228 11.1829 12.8926 10.01 14.4561L10.6947 14.9694C11.7881 13.5119 13.2052 12.3282 14.8343 11.5117C16.4634 10.6952 18.26 10.2682 20.0824 10.2644C21.9047 10.2606 23.7031 10.6801 25.3356 11.4898C26.9681 12.2996 28.3901 13.4773 29.4895 14.9303L30.1721 14.4142Z" fill="white"/>
<path d="M61.792 37.794C61.756 37.794 61.708 37.788 61.648 37.776C61.6 37.752 61.546 37.71 61.486 37.65L57.76 34.05C57.676 33.966 57.61 33.882 57.562 33.798C57.526 33.702 57.502 33.606 57.49 33.51V32.646C57.502 32.55 57.526 32.46 57.562 32.376C57.61 32.28 57.676 32.19 57.76 32.106L61.486 28.506C61.546 28.446 61.6 28.41 61.648 28.398C61.708 28.374 61.756 28.362 61.792 28.362C61.9 28.362 61.99 28.398 62.062 28.47C62.146 28.542 62.188 28.632 62.188 28.74V30.45C62.188 30.63 62.164 30.768 62.116 30.864C62.068 30.96 61.984 31.068 61.864 31.188L59.938 33.078L61.864 34.968C61.984 35.088 62.068 35.196 62.116 35.292C62.164 35.388 62.188 35.526 62.188 35.706V37.416C62.188 37.524 62.146 37.614 62.062 37.686C61.99 37.758 61.9 37.794 61.792 37.794ZM56.86 37.794C56.824 37.794 56.776 37.788 56.716 37.776C56.656 37.752 56.596 37.71 56.536 37.65L52.828 34.05C52.732 33.966 52.66 33.882 52.612 33.798C52.576 33.702 52.558 33.606 52.558 33.51V32.646C52.558 32.55 52.576 32.46 52.612 32.376C52.66 32.28 52.732 32.19 52.828 32.106L56.536 28.506C56.596 28.446 56.656 28.41 56.716 28.398C56.776 28.374 56.824 28.362 56.86 28.362C56.968 28.362 57.058 28.398 57.13 28.47C57.202 28.542 57.238 28.632 57.238 28.74V30.45C57.238 30.63 57.214 30.768 57.166 30.864C57.118 30.96 57.034 31.068 56.914 31.188L54.988 33.078L56.914 34.968C57.034 35.088 57.118 35.196 57.166 35.292C57.214 35.388 57.238 35.526 57.238 35.706V37.416C57.238 37.524 57.202 37.614 57.13 37.686C57.058 37.758 56.968 37.794 56.86 37.794ZM67.3629 39C67.2309 39 67.1229 38.958 67.0389 38.874C66.9549 38.79 66.9129 38.682 66.9129 38.55V29.226H63.7089C63.5769 29.226 63.4689 29.184 63.3849 29.1C63.3009 29.004 63.2589 28.896 63.2589 28.776V26.85C63.2589 26.718 63.3009 26.61 63.3849 26.526C63.4689 26.442 63.5769 26.4 63.7089 26.4H73.3929C73.5249 26.4 73.6329 26.442 73.7169 26.526C73.8009 26.61 73.8429 26.718 73.8429 26.85V28.776C73.8429 28.896 73.8009 29.004 73.7169 29.1C73.6329 29.184 73.5249 29.226 73.3929 29.226H70.1889V38.55C70.1889 38.682 70.1469 38.79 70.0629 38.874C69.9789 38.958 69.8709 39 69.7389 39H67.3629ZM80.7528 39.18C79.6728 39.18 78.7248 39.006 77.9088 38.658C77.1048 38.298 76.4808 37.752 76.0368 37.02C75.5928 36.276 75.3708 35.334 75.3708 34.194V26.85C75.3708 26.718 75.4128 26.61 75.4968 26.526C75.5808 26.442 75.6888 26.4 75.8208 26.4H78.1428C78.2748 26.4 78.3828 26.442 78.4668 26.526C78.5508 26.61 78.5928 26.718 78.5928 26.85V34.176C78.5928 34.956 78.7788 35.544 79.1508 35.94C79.5348 36.324 80.0688 36.516 80.7528 36.516C81.4248 36.516 81.9468 36.324 82.3188 35.94C82.7028 35.544 82.8948 34.956 82.8948 34.176V26.85C82.8948 26.718 82.9368 26.61 83.0208 26.526C83.1168 26.442 83.2248 26.4 83.3448 26.4H85.6848C85.8048 26.4 85.9068 26.442 85.9908 26.526C86.0868 26.61 86.1348 26.718 86.1348 26.85V34.194C86.1348 35.334 85.9128 36.276 85.4688 37.02C85.0247 37.752 84.4008 38.298 83.5968 38.658C82.7928 39.006 81.8448 39.18 80.7528 39.18ZM82.0488 25.5C81.9288 25.5 81.8268 25.464 81.7428 25.392C81.6708 25.32 81.6348 25.218 81.6348 25.086V23.448C81.6348 23.328 81.6708 23.232 81.7428 23.16C81.8268 23.076 81.9288 23.034 82.0488 23.034H83.7048C83.8248 23.034 83.9208 23.076 83.9928 23.16C84.0768 23.232 84.1188 23.328 84.1188 23.448V25.086C84.1188 25.218 84.0768 25.32 83.9928 25.392C83.9208 25.464 83.8248 25.5 83.7048 25.5H82.0488ZM77.7828 25.5C77.6628 25.5 77.5668 25.464 77.4948 25.392C77.4228 25.32 77.3868 25.218 77.3868 25.086V23.448C77.3868 23.328 77.4228 23.232 77.4948 23.16C77.5668 23.076 77.6628 23.034 77.7828 23.034H79.4388C79.5588 23.034 79.6548 23.076 79.7268 23.16C79.8108 23.232 79.8528 23.328 79.8528 23.448V25.086C79.8528 25.218 79.8108 25.32 79.7268 25.392C79.6548 25.464 79.5588 25.5 79.4388 25.5H77.7828ZM88.9717 39C88.8397 39 88.7317 38.958 88.6477 38.874C88.5637 38.79 88.5217 38.682 88.5217 38.55V26.85C88.5217 26.718 88.5637 26.61 88.6477 26.526C88.7317 26.442 88.8397 26.4 88.9717 26.4H93.8677C95.4157 26.4 96.6337 26.76 97.5217 27.48C98.4217 28.188 98.8717 29.196 98.8717 30.504C98.8717 31.356 98.6617 32.076 98.2417 32.664C97.8337 33.252 97.2937 33.696 96.6217 33.996L99.1057 38.424C99.1417 38.496 99.1597 38.562 99.1597 38.622C99.1597 38.718 99.1177 38.808 99.0337 38.892C98.9617 38.964 98.8717 39 98.7637 39H96.3877C96.1597 39 95.9917 38.946 95.8837 38.838C95.7757 38.718 95.6977 38.61 95.6497 38.514L93.5977 34.554H91.7437V38.55C91.7437 38.682 91.7017 38.79 91.6177 38.874C91.5337 38.958 91.4257 39 91.2937 39H88.9717ZM91.7437 32.016H93.8317C94.3957 32.016 94.8157 31.878 95.0917 31.602C95.3797 31.326 95.5237 30.948 95.5237 30.468C95.5237 30 95.3857 29.622 95.1097 29.334C94.8457 29.046 94.4197 28.902 93.8317 28.902H91.7437V32.016ZM101.417 39C101.285 39 101.177 38.958 101.093 38.874C101.009 38.79 100.967 38.682 100.967 38.55V26.85C100.967 26.718 101.009 26.61 101.093 26.526C101.177 26.442 101.285 26.4 101.417 26.4H103.685C103.817 26.4 103.925 26.442 104.009 26.526C104.093 26.61 104.135 26.718 104.135 26.85V30.846L107.465 26.742C107.513 26.67 107.591 26.598 107.699 26.526C107.819 26.442 107.975 26.4 108.167 26.4H110.759C110.867 26.4 110.957 26.442 111.029 26.526C111.101 26.598 111.137 26.682 111.137 26.778C111.137 26.862 111.113 26.934 111.065 26.994L106.763 32.43L111.407 38.406C111.455 38.454 111.479 38.526 111.479 38.622C111.479 38.718 111.437 38.808 111.353 38.892C111.281 38.964 111.197 39 111.101 39H108.419C108.203 39 108.035 38.952 107.915 38.856C107.807 38.76 107.735 38.688 107.699 38.64L104.135 34.194V38.55C104.135 38.682 104.093 38.79 104.009 38.874C103.925 38.958 103.817 39 103.685 39H101.417ZM113.335 39C113.215 39 113.107 38.958 113.011 38.874C112.927 38.79 112.885 38.682 112.885 38.55V26.85C112.885 26.718 112.927 26.61 113.011 26.526C113.107 26.442 113.215 26.4 113.335 26.4H115.279C115.471 26.4 115.615 26.454 115.711 26.562C115.819 26.658 115.885 26.736 115.909 26.796L119.077 32.484L122.245 26.796C122.281 26.736 122.341 26.658 122.425 26.562C122.521 26.454 122.671 26.4 122.875 26.4H124.801C124.933 26.4 125.041 26.442 125.125 26.526C125.221 26.61 125.269 26.718 125.269 26.85V38.55C125.269 38.682 125.221 38.79 125.125 38.874C125.041 38.958 124.933 39 124.801 39H122.659C122.527 39 122.413 38.958 122.317 38.874C122.233 38.79 122.191 38.682 122.191 38.55V31.8L120.157 35.562C120.109 35.67 120.037 35.766 119.941 35.85C119.845 35.934 119.713 35.976 119.545 35.976H118.609C118.441 35.976 118.309 35.934 118.213 35.85C118.117 35.766 118.039 35.67 117.979 35.562L115.945 31.8V38.55C115.945 38.682 115.903 38.79 115.819 38.874C115.735 38.958 115.627 39 115.495 39H113.335ZM128.224 39C128.092 39 127.984 38.958 127.9 38.874C127.816 38.79 127.774 38.682 127.774 38.55V26.85C127.774 26.718 127.816 26.61 127.9 26.526C127.984 26.442 128.092 26.4 128.224 26.4H136.63C136.762 26.4 136.87 26.442 136.954 26.526C137.038 26.61 137.08 26.718 137.08 26.85V28.542C137.08 28.674 137.038 28.782 136.954 28.866C136.87 28.95 136.762 28.992 136.63 28.992H130.888V31.422H136.234C136.366 31.422 136.474 31.47 136.558 31.566C136.642 31.65 136.684 31.758 136.684 31.89V33.456C136.684 33.576 136.642 33.684 136.558 33.78C136.474 33.864 136.366 33.906 136.234 33.906H130.888V36.408H136.774C136.906 36.408 137.014 36.45 137.098 36.534C137.182 36.618 137.224 36.726 137.224 36.858V38.55C137.224 38.682 137.182 38.79 137.098 38.874C137.014 38.958 136.906 39 136.774 39H128.224ZM139.72 39C139.588 39 139.48 38.958 139.396 38.874C139.312 38.79 139.27 38.682 139.27 38.55V26.85C139.27 26.718 139.312 26.61 139.396 26.526C139.48 26.442 139.588 26.4 139.72 26.4H141.628C141.832 26.4 141.976 26.448 142.06 26.544C142.156 26.628 142.216 26.694 142.24 26.742L146.632 33.672V26.85C146.632 26.718 146.674 26.61 146.758 26.526C146.842 26.442 146.95 26.4 147.082 26.4H149.242C149.374 26.4 149.482 26.442 149.566 26.526C149.65 26.61 149.692 26.718 149.692 26.85V38.55C149.692 38.67 149.65 38.778 149.566 38.874C149.482 38.958 149.374 39 149.242 39H147.316C147.124 39 146.98 38.952 146.884 38.856C146.8 38.76 146.746 38.694 146.722 38.658L142.33 31.998V38.55C142.33 38.682 142.288 38.79 142.204 38.874C142.12 38.958 142.012 39 141.88 39H139.72ZM155.429 39C155.297 39 155.189 38.958 155.105 38.874C155.021 38.79 154.979 38.682 154.979 38.55V29.226H151.775C151.643 29.226 151.535 29.184 151.451 29.1C151.367 29.004 151.325 28.896 151.325 28.776V26.85C151.325 26.718 151.367 26.61 151.451 26.526C151.535 26.442 151.643 26.4 151.775 26.4H161.459C161.591 26.4 161.699 26.442 161.783 26.526C161.867 26.61 161.909 26.718 161.909 26.85V28.776C161.909 28.896 161.867 29.004 161.783 29.1C161.699 29.184 161.591 29.226 161.459 29.226H158.255V38.55C158.255 38.682 158.213 38.79 158.129 38.874C158.045 38.958 157.937 39 157.805 39H155.429ZM163.995 39C163.863 39 163.755 38.958 163.671 38.874C163.587 38.79 163.545 38.682 163.545 38.55V26.85C163.545 26.718 163.587 26.61 163.671 26.526C163.755 26.442 163.863 26.4 163.995 26.4H172.401C172.533 26.4 172.641 26.442 172.725 26.526C172.809 26.61 172.851 26.718 172.851 26.85V28.542C172.851 28.674 172.809 28.782 172.725 28.866C172.641 28.95 172.533 28.992 172.401 28.992H166.659V31.422H172.005C172.137 31.422 172.245 31.47 172.329 31.566C172.413 31.65 172.455 31.758 172.455 31.89V33.456C172.455 33.576 172.413 33.684 172.329 33.78C172.245 33.864 172.137 33.906 172.005 33.906H166.659V36.408H172.545C172.677 36.408 172.785 36.45 172.869 36.534C172.953 36.618 172.995 36.726 172.995 36.858V38.55C172.995 38.682 172.953 38.79 172.869 38.874C172.785 38.958 172.677 39 172.545 39H163.995ZM175.491 39C175.359 39 175.251 38.958 175.167 38.874C175.083 38.79 175.041 38.682 175.041 38.55V26.85C175.041 26.718 175.083 26.61 175.167 26.526C175.251 26.442 175.359 26.4 175.491 26.4H177.813C177.945 26.4 178.053 26.442 178.137 26.526C178.221 26.61 178.263 26.718 178.263 26.85V31.188H182.709V26.85C182.709 26.718 182.751 26.61 182.835 26.526C182.919 26.442 183.027 26.4 183.159 26.4H185.481C185.613 26.4 185.721 26.442 185.805 26.526C185.889 26.61 185.931 26.718 185.931 26.85V38.55C185.931 38.682 185.889 38.79 185.805 38.874C185.721 38.958 185.613 39 185.481 39H183.159C183.027 39 182.919 38.958 182.835 38.874C182.751 38.79 182.709 38.682 182.709 38.55V34.068H178.263V38.55C178.263 38.682 178.221 38.79 178.137 38.874C178.053 38.958 177.945 39 177.813 39H175.491ZM188.903 39C188.771 39 188.663 38.958 188.579 38.874C188.495 38.79 188.453 38.682 188.453 38.55V26.85C188.453 26.718 188.495 26.61 188.579 26.526C188.663 26.442 188.771 26.4 188.903 26.4H190.811C191.015 26.4 191.159 26.448 191.243 26.544C191.339 26.628 191.399 26.694 191.423 26.742L195.815 33.672V26.85C195.815 26.718 195.857 26.61 195.941 26.526C196.025 26.442 196.133 26.4 196.265 26.4H198.425C198.557 26.4 198.665 26.442 198.749 26.526C198.833 26.61 198.875 26.718 198.875 26.85V38.55C198.875 38.67 198.833 38.778 198.749 38.874C198.665 38.958 198.557 39 198.425 39H196.499C196.307 39 196.163 38.952 196.067 38.856C195.983 38.76 195.929 38.694 195.905 38.658L191.513 31.998V38.55C191.513 38.682 191.471 38.79 191.387 38.874C191.303 38.958 191.195 39 191.063 39H188.903ZM206.539 39.18C205.435 39.18 204.475 39 203.659 38.64C202.843 38.28 202.207 37.74 201.751 37.02C201.295 36.288 201.043 35.376 200.995 34.284C200.983 33.768 200.977 33.252 200.977 32.736C200.977 32.22 200.983 31.698 200.995 31.17C201.043 30.09 201.295 29.184 201.751 28.452C202.219 27.708 202.861 27.15 203.677 26.778C204.493 26.406 205.447 26.22 206.539 26.22C207.619 26.22 208.567 26.406 209.383 26.778C210.211 27.15 210.859 27.708 211.327 28.452C211.795 29.184 212.047 30.09 212.083 31.17C212.107 31.698 212.119 32.22 212.119 32.736C212.119 33.252 212.107 33.768 212.083 34.284C212.035 35.376 211.783 36.288 211.327 37.02C210.871 37.74 210.235 38.28 209.419 38.64C208.603 39 207.643 39.18 206.539 39.18ZM206.539 36.588C207.175 36.588 207.691 36.396 208.087 36.012C208.495 35.628 208.711 35.016 208.735 34.176C208.759 33.648 208.771 33.15 208.771 32.682C208.771 32.214 208.759 31.728 208.735 31.224C208.711 30.66 208.603 30.204 208.411 29.856C208.231 29.496 207.979 29.232 207.655 29.064C207.331 28.896 206.959 28.812 206.539 28.812C206.131 28.812 205.765 28.896 205.441 29.064C205.117 29.232 204.859 29.496 204.667 29.856C204.475 30.204 204.367 30.66 204.343 31.224C204.331 31.728 204.325 32.214 204.325 32.682C204.325 33.15 204.331 33.648 204.343 34.176C204.379 35.016 204.595 35.628 204.991 36.012C205.387 36.396 205.903 36.588 206.539 36.588ZM219.407 39.18C218.267 39.18 217.283 38.994 216.455 38.622C215.639 38.238 215.003 37.686 214.547 36.966C214.103 36.234 213.857 35.346 213.809 34.302C213.797 33.786 213.791 33.24 213.791 32.664C213.791 32.076 213.797 31.518 213.809 30.99C213.857 29.97 214.109 29.106 214.565 28.398C215.021 27.69 215.663 27.15 216.491 26.778C217.319 26.406 218.291 26.22 219.407 26.22C220.307 26.22 221.105 26.334 221.801 26.562C222.497 26.778 223.079 27.072 223.547 27.444C224.027 27.816 224.387 28.224 224.627 28.668C224.879 29.112 225.011 29.55 225.023 29.982C225.035 30.09 224.999 30.18 224.915 30.252C224.843 30.324 224.753 30.36 224.645 30.36H222.017C221.885 30.36 221.783 30.342 221.711 30.306C221.651 30.258 221.597 30.192 221.549 30.108C221.465 29.928 221.339 29.742 221.171 29.55C221.015 29.346 220.793 29.172 220.505 29.028C220.229 28.884 219.863 28.812 219.407 28.812C218.723 28.812 218.183 28.992 217.787 29.352C217.403 29.712 217.193 30.288 217.157 31.08C217.121 32.112 217.121 33.156 217.157 34.212C217.193 35.052 217.415 35.658 217.823 36.03C218.231 36.402 218.771 36.588 219.443 36.588C219.899 36.588 220.301 36.51 220.649 36.354C221.009 36.198 221.291 35.958 221.495 35.634C221.699 35.298 221.801 34.872 221.801 34.356V34.014H220.109C219.977 34.014 219.863 33.972 219.767 33.888C219.683 33.792 219.641 33.678 219.641 33.546V32.214C219.641 32.082 219.683 31.974 219.767 31.89C219.863 31.794 219.977 31.746 220.109 31.746H224.645C224.777 31.746 224.885 31.794 224.969 31.89C225.053 31.974 225.095 32.082 225.095 32.214V34.266C225.095 35.298 224.861 36.18 224.393 36.912C223.925 37.644 223.259 38.208 222.395 38.604C221.543 38.988 220.547 39.18 219.407 39.18ZM232.434 39.18C231.354 39.18 230.406 39.006 229.59 38.658C228.786 38.298 228.162 37.752 227.718 37.02C227.274 36.276 227.052 35.334 227.052 34.194V26.85C227.052 26.718 227.094 26.61 227.178 26.526C227.262 26.442 227.37 26.4 227.502 26.4H229.824C229.956 26.4 230.064 26.442 230.148 26.526C230.232 26.61 230.274 26.718 230.274 26.85V34.176C230.274 34.956 230.46 35.544 230.832 35.94C231.216 36.324 231.75 36.516 232.434 36.516C233.106 36.516 233.628 36.324 234 35.94C234.384 35.544 234.576 34.956 234.576 34.176V26.85C234.576 26.718 234.618 26.61 234.702 26.526C234.798 26.442 234.906 26.4 235.026 26.4H237.366C237.486 26.4 237.588 26.442 237.672 26.526C237.768 26.61 237.816 26.718 237.816 26.85V34.194C237.816 35.334 237.594 36.276 237.15 37.02C236.706 37.752 236.082 38.298 235.278 38.658C234.474 39.006 233.526 39.18 232.434 39.18ZM240.653 39C240.521 39 240.413 38.958 240.329 38.874C240.245 38.79 240.203 38.682 240.203 38.55V26.85C240.203 26.718 240.245 26.61 240.329 26.526C240.413 26.442 240.521 26.4 240.653 26.4H245.549C247.097 26.4 248.315 26.76 249.203 27.48C250.103 28.188 250.553 29.196 250.553 30.504C250.553 31.356 250.343 32.076 249.923 32.664C249.515 33.252 248.975 33.696 248.303 33.996L250.787 38.424C250.823 38.496 250.841 38.562 250.841 38.622C250.841 38.718 250.799 38.808 250.715 38.892C250.643 38.964 250.553 39 250.445 39H248.069C247.841 39 247.673 38.946 247.565 38.838C247.457 38.718 247.379 38.61 247.331 38.514L245.279 34.554H243.425V38.55C243.425 38.682 243.383 38.79 243.299 38.874C243.215 38.958 243.107 39 242.975 39H240.653ZM243.425 32.016H245.513C246.077 32.016 246.497 31.878 246.773 31.602C247.061 31.326 247.205 30.948 247.205 30.468C247.205 30 247.067 29.622 246.791 29.334C246.527 29.046 246.101 28.902 245.513 28.902H243.425V32.016ZM253.099 39C252.967 39 252.859 38.958 252.775 38.874C252.691 38.79 252.649 38.682 252.649 38.55V26.85C252.649 26.718 252.691 26.61 252.775 26.526C252.859 26.442 252.967 26.4 253.099 26.4H255.475C255.595 26.4 255.697 26.442 255.781 26.526C255.877 26.61 255.925 26.718 255.925 26.85V36.282H261.361C261.493 36.282 261.601 36.33 261.685 36.426C261.781 36.51 261.829 36.618 261.829 36.75V38.55C261.829 38.682 261.781 38.79 261.685 38.874C261.601 38.958 261.493 39 261.361 39H253.099ZM268.434 39.18C267.354 39.18 266.406 39.006 265.59 38.658C264.786 38.298 264.162 37.752 263.718 37.02C263.274 36.276 263.052 35.334 263.052 34.194V26.85C263.052 26.718 263.094 26.61 263.178 26.526C263.262 26.442 263.37 26.4 263.502 26.4H265.824C265.956 26.4 266.064 26.442 266.148 26.526C266.232 26.61 266.274 26.718 266.274 26.85V34.176C266.274 34.956 266.46 35.544 266.832 35.94C267.216 36.324 267.75 36.516 268.434 36.516C269.106 36.516 269.628 36.324 270 35.94C270.384 35.544 270.576 34.956 270.576 34.176V26.85C270.576 26.718 270.618 26.61 270.702 26.526C270.798 26.442 270.906 26.4 271.026 26.4H273.366C273.486 26.4 273.588 26.442 273.672 26.526C273.768 26.61 273.816 26.718 273.816 26.85V34.194C273.816 35.334 273.594 36.276 273.15 37.02C272.706 37.752 272.082 38.298 271.278 38.658C270.474 39.006 269.526 39.18 268.434 39.18ZM280.847 42.96C280.535 42.96 280.247 42.906 279.983 42.798C279.719 42.69 279.533 42.564 279.425 42.42C279.317 42.276 279.323 42.15 279.443 42.042L279.767 41.754C279.875 41.658 279.965 41.628 280.037 41.664C280.121 41.7 280.223 41.748 280.343 41.808C280.463 41.88 280.631 41.916 280.847 41.916C281.039 41.916 281.189 41.862 281.297 41.754C281.405 41.646 281.459 41.52 281.459 41.376C281.459 41.22 281.405 41.088 281.297 40.98C281.189 40.884 281.039 40.836 280.847 40.836C280.715 40.836 280.583 40.854 280.451 40.89C280.331 40.938 280.223 40.962 280.127 40.962C280.031 40.974 279.935 40.944 279.839 40.872L279.497 40.512C279.425 40.44 279.389 40.362 279.389 40.278C279.401 40.194 279.443 40.08 279.515 39.936L279.875 39.126C278.903 39.03 278.093 38.808 277.445 38.46C276.797 38.1 276.305 37.668 275.969 37.164C275.645 36.66 275.477 36.126 275.465 35.562C275.465 35.466 275.501 35.382 275.573 35.31C275.657 35.226 275.753 35.184 275.861 35.184H278.129C278.297 35.184 278.423 35.214 278.507 35.274C278.603 35.334 278.687 35.412 278.759 35.508C278.855 35.688 278.987 35.862 279.155 36.03C279.335 36.198 279.563 36.336 279.839 36.444C280.127 36.54 280.481 36.588 280.901 36.588C281.597 36.588 282.119 36.48 282.467 36.264C282.827 36.048 283.007 35.754 283.007 35.382C283.007 35.118 282.911 34.902 282.719 34.734C282.527 34.554 282.215 34.398 281.783 34.266C281.363 34.122 280.799 33.978 280.091 33.834C279.179 33.642 278.399 33.396 277.751 33.096C277.115 32.784 276.629 32.382 276.293 31.89C275.957 31.386 275.789 30.762 275.789 30.018C275.789 29.286 275.993 28.632 276.401 28.056C276.821 27.48 277.403 27.03 278.147 26.706C278.891 26.382 279.773 26.22 280.793 26.22C281.621 26.22 282.347 26.328 282.971 26.544C283.607 26.76 284.141 27.048 284.573 27.408C285.005 27.768 285.329 28.152 285.545 28.56C285.773 28.956 285.893 29.346 285.905 29.73C285.905 29.826 285.869 29.916 285.797 30C285.725 30.072 285.635 30.108 285.527 30.108H283.151C283.019 30.108 282.905 30.084 282.809 30.036C282.713 29.988 282.629 29.91 282.557 29.802C282.485 29.538 282.293 29.31 281.981 29.118C281.681 28.914 281.285 28.812 280.793 28.812C280.265 28.812 279.851 28.908 279.551 29.1C279.263 29.28 279.119 29.562 279.119 29.946C279.119 30.186 279.197 30.396 279.353 30.576C279.521 30.756 279.791 30.912 280.163 31.044C280.547 31.176 281.069 31.314 281.729 31.458C282.821 31.662 283.703 31.92 284.375 32.232C285.047 32.532 285.539 32.928 285.851 33.42C286.163 33.9 286.319 34.506 286.319 35.238C286.319 36.054 286.091 36.756 285.635 37.344C285.179 37.932 284.543 38.382 283.727 38.694C282.923 39.006 281.993 39.168 280.937 39.18L280.577 39.9C280.649 39.864 280.745 39.834 280.865 39.81C280.997 39.798 281.099 39.792 281.171 39.792C281.615 39.792 281.963 39.936 282.215 40.224C282.479 40.512 282.611 40.89 282.611 41.358C282.611 41.814 282.455 42.192 282.143 42.492C281.831 42.804 281.399 42.96 280.847 42.96ZM291.302 39C291.182 39 291.074 38.958 290.978 38.874C290.894 38.79 290.852 38.682 290.852 38.55V34.68L286.676 26.976C286.664 26.94 286.652 26.91 286.64 26.886C286.628 26.85 286.622 26.814 286.622 26.778C286.622 26.682 286.658 26.598 286.73 26.526C286.814 26.442 286.91 26.4 287.018 26.4H289.268C289.448 26.4 289.586 26.448 289.682 26.544C289.79 26.628 289.856 26.706 289.88 26.778L292.472 31.422L295.064 26.778C295.1 26.706 295.166 26.628 295.262 26.544C295.37 26.448 295.514 26.4 295.694 26.4H297.944C298.052 26.4 298.142 26.442 298.214 26.526C298.286 26.598 298.322 26.682 298.322 26.778C298.322 26.814 298.316 26.85 298.304 26.886C298.304 26.91 298.298 26.94 298.286 26.976L294.092 34.68V38.55C294.092 38.682 294.05 38.79 293.966 38.874C293.882 38.958 293.774 39 293.642 39H291.302ZM300.314 39C300.182 39 300.074 38.958 299.99 38.874C299.906 38.79 299.864 38.682 299.864 38.55V26.85C299.864 26.718 299.906 26.61 299.99 26.526C300.074 26.442 300.182 26.4 300.314 26.4H302.582C302.714 26.4 302.822 26.442 302.906 26.526C302.99 26.61 303.032 26.718 303.032 26.85V30.846L306.362 26.742C306.41 26.67 306.488 26.598 306.596 26.526C306.716 26.442 306.872 26.4 307.064 26.4H309.656C309.764 26.4 309.854 26.442 309.926 26.526C309.998 26.598 310.034 26.682 310.034 26.778C310.034 26.862 310.01 26.934 309.962 26.994L305.66 32.43L310.304 38.406C310.352 38.454 310.376 38.526 310.376 38.622C310.376 38.718 310.334 38.808 310.25 38.892C310.178 38.964 310.094 39 309.998 39H307.316C307.1 39 306.932 38.952 306.812 38.856C306.704 38.76 306.632 38.688 306.596 38.64L303.032 34.194V38.55C303.032 38.682 302.99 38.79 302.906 38.874C302.822 38.958 302.714 39 302.582 39H300.314ZM316.839 37.794C316.731 37.794 316.641 37.758 316.569 37.686C316.497 37.614 316.461 37.524 316.461 37.416V35.706C316.461 35.526 316.485 35.388 316.533 35.292C316.581 35.196 316.665 35.088 316.785 34.968L318.711 33.078L316.785 31.188C316.665 31.068 316.581 30.96 316.533 30.864C316.485 30.768 316.461 30.63 316.461 30.45V28.74C316.461 28.632 316.497 28.542 316.569 28.47C316.641 28.398 316.731 28.362 316.839 28.362C316.875 28.362 316.923 28.374 316.983 28.398C317.043 28.41 317.103 28.446 317.163 28.506L320.871 32.106C320.967 32.19 321.033 32.28 321.069 32.376C321.117 32.46 321.141 32.55 321.141 32.646V33.51C321.141 33.606 321.117 33.702 321.069 33.798C321.033 33.882 320.967 33.966 320.871 34.05L317.163 37.65C317.103 37.71 317.043 37.752 316.983 37.776C316.923 37.788 316.875 37.794 316.839 37.794ZM311.907 37.794C311.799 37.794 311.709 37.758 311.637 37.686C311.565 37.614 311.529 37.524 311.529 37.416V35.706C311.529 35.526 311.553 35.388 311.601 35.292C311.649 35.196 311.733 35.088 311.853 34.968L313.761 33.078L311.853 31.188C311.733 31.068 311.649 30.96 311.601 30.864C311.553 30.768 311.529 30.63 311.529 30.45V28.74C311.529 28.632 311.565 28.542 311.637 28.47C311.709 28.398 311.799 28.362 311.907 28.362C311.943 28.362 311.991 28.374 312.051 28.398C312.111 28.41 312.171 28.446 312.231 28.506L315.939 32.106C316.023 32.19 316.083 32.28 316.119 32.376C316.167 32.46 316.197 32.55 316.209 32.646V33.51C316.197 33.606 316.167 33.702 316.119 33.798C316.083 33.882 316.023 33.966 315.939 34.05L312.231 37.65C312.171 37.71 312.111 37.752 312.051 37.776C311.991 37.788 311.943 37.794 311.907 37.794Z" fill="white"/>
<path d="M62.5098 64C62.4031 64 62.3125 63.968 62.2378 63.904C62.1738 63.8293 62.1418 63.7387 62.1418 63.632V59.856L58.2858 53.328C58.2751 53.296 58.2645 53.264 58.2538 53.232C58.2431 53.2 58.2378 53.1627 58.2378 53.12C58.2378 53.0347 58.2698 52.96 58.3338 52.896C58.3978 52.832 58.4725 52.8 58.5578 52.8H59.3898C59.4858 52.8 59.5711 52.8267 59.6458 52.88C59.7205 52.9227 59.7738 52.9867 59.8058 53.072L62.9258 58.256L66.0458 53.072C66.0991 52.9867 66.1578 52.9227 66.2218 52.88C66.2965 52.8267 66.3818 52.8 66.4778 52.8H67.2938C67.3898 52.8 67.4698 52.832 67.5338 52.896C67.5978 52.96 67.6298 53.0347 67.6298 53.12C67.6298 53.1627 67.6245 53.2 67.6138 53.232C67.6031 53.264 67.5871 53.296 67.5658 53.328L63.7258 59.856V63.632C63.7258 63.7387 63.6885 63.8293 63.6138 63.904C63.5498 63.968 63.4591 64 63.3418 64H62.5098ZM62.4938 52C62.3231 52 62.2378 51.9147 62.2378 51.744C62.2378 51.6587 62.2645 51.5893 62.3178 51.536L63.5178 50.096C63.6138 49.9787 63.6991 49.904 63.7738 49.872C63.8485 49.8293 63.9605 49.808 64.1098 49.808H65.2938C65.4965 49.808 65.5978 49.9093 65.5978 50.112C65.5978 50.1867 65.5711 50.2507 65.5178 50.304L63.6618 51.824C63.5765 51.8987 63.4965 51.9467 63.4218 51.968C63.3471 51.9893 63.2511 52 63.1338 52H62.4938ZM70.0587 64.16C69.5254 64.16 69.04 64.0533 68.6027 63.84C68.1654 63.6267 67.8134 63.3387 67.5467 62.976C67.28 62.6133 67.1467 62.2027 67.1467 61.744C67.1467 61.008 67.4454 60.4213 68.0427 59.984C68.64 59.5467 69.4187 59.2587 70.3787 59.12L72.7627 58.784V58.32C72.7627 57.808 72.6134 57.408 72.3147 57.12C72.0267 56.832 71.552 56.688 70.8907 56.688C70.4107 56.688 70.0214 56.784 69.7227 56.976C69.4347 57.168 69.232 57.4133 69.1147 57.712C69.0507 57.872 68.9387 57.952 68.7787 57.952H68.0587C67.9414 57.952 67.8507 57.92 67.7867 57.856C67.7334 57.7813 67.7067 57.696 67.7067 57.6C67.7067 57.44 67.7654 57.2427 67.8827 57.008C68.0107 56.7733 68.2027 56.544 68.4587 56.32C68.7147 56.096 69.04 55.9093 69.4347 55.76C69.84 55.6 70.3307 55.52 70.9067 55.52C71.5467 55.52 72.0854 55.6053 72.5227 55.776C72.96 55.936 73.3014 56.1547 73.5467 56.432C73.8027 56.7093 73.984 57.024 74.0907 57.376C74.208 57.728 74.2667 58.0853 74.2667 58.448V63.632C74.2667 63.7387 74.2294 63.8293 74.1547 63.904C74.0907 63.968 74.0054 64 73.8987 64H73.1627C73.0454 64 72.9547 63.968 72.8907 63.904C72.8267 63.8293 72.7947 63.7387 72.7947 63.632V62.944C72.656 63.136 72.4694 63.328 72.2347 63.52C72 63.7013 71.7067 63.856 71.3547 63.984C71.0027 64.1013 70.5707 64.16 70.0587 64.16ZM70.3947 62.96C70.832 62.96 71.232 62.8693 71.5947 62.688C71.9574 62.496 72.24 62.2027 72.4427 61.808C72.656 61.4133 72.7627 60.9173 72.7627 60.32V59.872L70.9067 60.144C70.1494 60.2507 69.5787 60.432 69.1947 60.688C68.8107 60.9333 68.6187 61.248 68.6187 61.632C68.6187 61.9307 68.704 62.1813 68.8747 62.384C69.056 62.576 69.28 62.72 69.5467 62.816C69.824 62.912 70.1067 62.96 70.3947 62.96ZM76.9508 67.04C76.8441 67.04 76.7535 67.0027 76.6788 66.928C76.6148 66.864 76.5828 66.7787 76.5828 66.672V56.048C76.5828 55.9413 76.6148 55.856 76.6788 55.792C76.7535 55.7173 76.8441 55.68 76.9508 55.68H77.6868C77.7935 55.68 77.8788 55.7173 77.9428 55.792C78.0175 55.856 78.0548 55.9413 78.0548 56.048V56.752C78.3108 56.4 78.6521 56.1067 79.0788 55.872C79.5055 55.6373 80.0388 55.52 80.6788 55.52C81.2761 55.52 81.7828 55.6213 82.1988 55.824C82.6255 56.0267 82.9721 56.304 83.2388 56.656C83.5161 57.008 83.7241 57.408 83.8628 57.856C84.0015 58.304 84.0761 58.784 84.0868 59.296C84.0975 59.4667 84.1028 59.648 84.1028 59.84C84.1028 60.032 84.0975 60.2133 84.0868 60.384C84.0761 60.8853 84.0015 61.3653 83.8628 61.824C83.7241 62.272 83.5161 62.672 83.2388 63.024C82.9721 63.3653 82.6255 63.6427 82.1988 63.856C81.7828 64.0587 81.2761 64.16 80.6788 64.16C80.0601 64.16 79.5375 64.048 79.1108 63.824C78.6948 63.5893 78.3535 63.3013 78.0868 62.96V66.672C78.0868 66.7787 78.0548 66.864 77.9908 66.928C77.9268 67.0027 77.8361 67.04 77.7188 67.04H76.9508ZM80.3428 62.864C80.8975 62.864 81.3295 62.7467 81.6388 62.512C81.9588 62.2667 82.1881 61.952 82.3268 61.568C82.4655 61.1733 82.5455 60.752 82.5668 60.304C82.5775 59.9947 82.5775 59.6853 82.5668 59.376C82.5455 58.928 82.4655 58.512 82.3268 58.128C82.1881 57.7333 81.9588 57.4187 81.6388 57.184C81.3295 56.9387 80.8975 56.816 80.3428 56.816C79.8201 56.816 79.3935 56.9387 79.0628 57.184C78.7428 57.4293 78.5028 57.744 78.3428 58.128C78.1935 58.5013 78.1081 58.8853 78.0868 59.28C78.0761 59.4507 78.0708 59.6533 78.0708 59.888C78.0708 60.1227 78.0761 60.3307 78.0868 60.512C78.0975 60.8853 78.1828 61.2533 78.3428 61.616C78.5135 61.9787 78.7641 62.2773 79.0948 62.512C79.4255 62.7467 79.8415 62.864 80.3428 62.864ZM87.2416 67.04C87.1562 67.04 87.0816 67.008 87.0176 66.944C86.9536 66.88 86.9216 66.8053 86.9216 66.72C86.9216 66.6773 86.9269 66.6347 86.9376 66.592C86.9482 66.5493 86.9696 66.496 87.0016 66.432L88.2336 63.504L85.1776 56.288C85.1242 56.16 85.0976 56.0693 85.0976 56.016C85.0976 55.92 85.1296 55.84 85.1936 55.776C85.2576 55.712 85.3376 55.68 85.4336 55.68H86.2176C86.3242 55.68 86.4096 55.7067 86.4736 55.76C86.5376 55.8133 86.5802 55.8773 86.6016 55.952L89.0336 61.776L91.5296 55.952C91.5616 55.8773 91.6042 55.8133 91.6576 55.76C91.7216 55.7067 91.8122 55.68 91.9296 55.68H92.6816C92.7776 55.68 92.8576 55.712 92.9216 55.776C92.9856 55.84 93.0176 55.9147 93.0176 56C93.0176 56.0533 92.9909 56.1493 92.9376 56.288L88.3936 66.768C88.3616 66.8427 88.3136 66.9067 88.2496 66.96C88.1962 67.0133 88.1109 67.04 87.9936 67.04H87.2416ZM94.9821 64C94.8754 64 94.7847 63.968 94.7101 63.904C94.6461 63.8293 94.6141 63.7387 94.6141 63.632V53.008C94.6141 52.9013 94.6461 52.816 94.7101 52.752C94.7847 52.6773 94.8754 52.64 94.9821 52.64H95.7341C95.8407 52.64 95.9261 52.6773 95.9901 52.752C96.0647 52.816 96.1021 52.9013 96.1021 53.008V58.576L99.2541 55.952C99.3821 55.8453 99.4781 55.776 99.5421 55.744C99.6167 55.7013 99.7341 55.68 99.8941 55.68H100.742C100.838 55.68 100.918 55.712 100.982 55.776C101.046 55.84 101.078 55.92 101.078 56.016C101.078 56.0587 101.062 56.1067 101.03 56.16C101.009 56.2133 100.961 56.2667 100.886 56.32L97.1901 59.392L101.286 63.376C101.414 63.4827 101.478 63.5787 101.478 63.664C101.478 63.76 101.446 63.84 101.382 63.904C101.318 63.968 101.238 64 101.142 64H100.31C100.15 64 100.033 63.984 99.9581 63.952C99.8834 63.9093 99.7874 63.8347 99.6701 63.728L96.1021 60.32V63.632C96.1021 63.7387 96.0647 63.8293 95.9901 63.904C95.9261 63.968 95.8407 64 95.7341 64H94.9821ZM110.022 67.52C109.296 67.52 108.699 67.424 108.23 67.232C107.771 67.04 107.408 66.8053 107.142 66.528C106.886 66.2613 106.699 65.9893 106.582 65.712C106.475 65.4453 106.416 65.232 106.406 65.072C106.395 64.9653 106.427 64.8747 106.502 64.8C106.587 64.7253 106.678 64.688 106.774 64.688H107.542C107.638 64.688 107.718 64.7093 107.782 64.752C107.846 64.7947 107.899 64.8853 107.942 65.024C108.006 65.184 108.102 65.36 108.23 65.552C108.358 65.7547 108.555 65.9253 108.822 66.064C109.088 66.2133 109.462 66.288 109.942 66.288C110.443 66.288 110.864 66.2187 111.206 66.08C111.547 65.952 111.803 65.7173 111.974 65.376C112.155 65.0453 112.246 64.5867 112.246 64V62.912C111.99 63.2427 111.654 63.52 111.238 63.744C110.822 63.9573 110.299 64.064 109.67 64.064C109.072 64.064 108.56 63.9627 108.134 63.76C107.707 63.5467 107.355 63.264 107.078 62.912C106.811 62.5493 106.608 62.1387 106.47 61.68C106.342 61.2213 106.267 60.7413 106.246 60.24C106.235 59.9413 106.235 59.648 106.246 59.36C106.267 58.8587 106.342 58.3787 106.47 57.92C106.608 57.4613 106.811 57.0507 107.078 56.688C107.355 56.3253 107.707 56.0427 108.134 55.84C108.56 55.6267 109.072 55.52 109.67 55.52C110.31 55.52 110.838 55.6427 111.254 55.888C111.68 56.1227 112.027 56.4107 112.294 56.752V56.064C112.294 55.9573 112.326 55.8667 112.39 55.792C112.464 55.7173 112.555 55.68 112.662 55.68H113.398C113.504 55.68 113.595 55.7173 113.67 55.792C113.744 55.8667 113.782 55.9573 113.782 56.064V63.824C113.782 64.5387 113.659 65.1733 113.414 65.728C113.179 66.2827 112.784 66.72 112.23 67.04C111.686 67.36 110.95 67.52 110.022 67.52ZM109.99 62.784C110.523 62.784 110.95 62.6613 111.27 62.416C111.6 62.1707 111.84 61.8613 111.99 61.488C112.15 61.1147 112.235 60.736 112.246 60.352C112.256 60.2027 112.262 60.0213 112.262 59.808C112.262 59.584 112.256 59.3973 112.246 59.248C112.235 58.864 112.15 58.4853 111.99 58.112C111.84 57.7387 111.6 57.4293 111.27 57.184C110.95 56.9387 110.523 56.816 109.99 56.816C109.456 56.816 109.03 56.9387 108.71 57.184C108.39 57.4187 108.16 57.7333 108.022 58.128C107.883 58.512 107.803 58.928 107.782 59.376C107.771 59.6533 107.771 59.936 107.782 60.224C107.803 60.672 107.883 61.0933 108.022 61.488C108.16 61.872 108.39 62.1867 108.71 62.432C109.03 62.6667 109.456 62.784 109.99 62.784ZM119.569 64.16C118.758 64.16 118.081 64.0053 117.537 63.696C116.993 63.3867 116.577 62.96 116.289 62.416C116.001 61.8613 115.841 61.232 115.809 60.528C115.798 60.3467 115.793 60.1173 115.793 59.84C115.793 59.552 115.798 59.3227 115.809 59.152C115.841 58.4373 116.001 57.808 116.289 57.264C116.587 56.72 117.009 56.2933 117.553 55.984C118.097 55.6747 118.769 55.52 119.569 55.52C120.369 55.52 121.041 55.6747 121.585 55.984C122.129 56.2933 122.545 56.72 122.833 57.264C123.131 57.808 123.297 58.4373 123.329 59.152C123.339 59.3227 123.345 59.552 123.345 59.84C123.345 60.1173 123.339 60.3467 123.329 60.528C123.297 61.232 123.137 61.8613 122.849 62.416C122.561 62.96 122.145 63.3867 121.601 63.696C121.057 64.0053 120.379 64.16 119.569 64.16ZM119.569 62.928C120.23 62.928 120.758 62.72 121.153 62.304C121.547 61.8773 121.761 61.2587 121.793 60.448C121.803 60.288 121.809 60.0853 121.809 59.84C121.809 59.5947 121.803 59.392 121.793 59.232C121.761 58.4213 121.547 57.808 121.153 57.392C120.758 56.9653 120.23 56.752 119.569 56.752C118.907 56.752 118.374 56.9653 117.969 57.392C117.574 57.808 117.366 58.4213 117.345 59.232C117.334 59.392 117.329 59.5947 117.329 59.84C117.329 60.0853 117.334 60.288 117.345 60.448C117.366 61.2587 117.574 61.8773 117.969 62.304C118.374 62.72 118.907 62.928 119.569 62.928ZM120.481 54.064C120.363 54.064 120.273 54.032 120.209 53.968C120.145 53.904 120.113 53.8187 120.113 53.712V52.848C120.113 52.7413 120.145 52.656 120.209 52.592C120.273 52.5173 120.363 52.48 120.481 52.48H121.345C121.451 52.48 121.537 52.5173 121.601 52.592C121.675 52.656 121.713 52.7413 121.713 52.848V53.712C121.713 53.8187 121.675 53.904 121.601 53.968C121.537 54.032 121.451 54.064 121.345 54.064H120.481ZM117.761 54.064C117.654 54.064 117.569 54.032 117.505 53.968C117.441 53.904 117.409 53.8187 117.409 53.712V52.848C117.409 52.7413 117.441 52.656 117.505 52.592C117.569 52.5173 117.654 52.48 117.761 52.48H118.641C118.747 52.48 118.833 52.5173 118.897 52.592C118.971 52.656 119.009 52.7413 119.009 52.848V53.712C119.009 53.8187 118.971 53.904 118.897 53.968C118.833 54.032 118.747 54.064 118.641 54.064H117.761ZM125.716 64C125.609 64 125.519 63.968 125.444 63.904C125.38 63.8293 125.348 63.7387 125.348 63.632V56.064C125.348 55.9573 125.38 55.8667 125.444 55.792C125.519 55.7173 125.609 55.68 125.716 55.68H126.452C126.559 55.68 126.649 55.7173 126.724 55.792C126.799 55.8667 126.836 55.9573 126.836 56.064V56.768C127.049 56.4053 127.343 56.1333 127.716 55.952C128.089 55.7707 128.537 55.68 129.06 55.68H129.7C129.807 55.68 129.892 55.7173 129.956 55.792C130.02 55.856 130.052 55.9413 130.052 56.048V56.704C130.052 56.8107 130.02 56.896 129.956 56.96C129.892 57.024 129.807 57.056 129.7 57.056H128.74C128.164 57.056 127.711 57.2267 127.38 57.568C127.049 57.8987 126.884 58.352 126.884 58.928V63.632C126.884 63.7387 126.847 63.8293 126.772 63.904C126.697 63.968 126.607 64 126.5 64H125.716ZM131.794 64C131.688 64 131.597 63.968 131.522 63.904C131.458 63.8293 131.426 63.7387 131.426 63.632V56.048C131.426 55.9413 131.458 55.856 131.522 55.792C131.597 55.7173 131.688 55.68 131.794 55.68H132.546C132.653 55.68 132.738 55.7173 132.802 55.792C132.877 55.856 132.914 55.9413 132.914 56.048V56.752C133.192 56.3893 133.538 56.096 133.954 55.872C134.381 55.6373 134.925 55.52 135.586 55.52C136.28 55.52 136.866 55.6747 137.346 55.984C137.837 56.2827 138.205 56.704 138.45 57.248C138.696 57.7813 138.818 58.4053 138.818 59.12V63.632C138.818 63.7387 138.786 63.8293 138.722 63.904C138.658 63.968 138.573 64 138.466 64H137.666C137.56 64 137.469 63.968 137.394 63.904C137.33 63.8293 137.298 63.7387 137.298 63.632V59.2C137.298 58.4533 137.117 57.872 136.754 57.456C136.392 57.0293 135.858 56.816 135.154 56.816C134.493 56.816 133.96 57.0293 133.554 57.456C133.16 57.872 132.962 58.4533 132.962 59.2V63.632C132.962 63.7387 132.925 63.8293 132.85 63.904C132.786 63.968 132.701 64 132.594 64H131.794ZM144.233 64.16C143.551 64.16 142.969 64.0107 142.489 63.712C142.02 63.4027 141.663 62.976 141.417 62.432C141.172 61.888 141.049 61.264 141.049 60.56V56.048C141.049 55.9413 141.081 55.856 141.145 55.792C141.22 55.7173 141.311 55.68 141.417 55.68H142.217C142.324 55.68 142.409 55.7173 142.473 55.792C142.548 55.856 142.585 55.9413 142.585 56.048V60.48C142.585 62.0693 143.279 62.864 144.665 62.864C145.327 62.864 145.855 62.656 146.249 62.24C146.655 61.8133 146.857 61.2267 146.857 60.48V56.048C146.857 55.9413 146.889 55.856 146.953 55.792C147.028 55.7173 147.119 55.68 147.225 55.68H148.009C148.127 55.68 148.217 55.7173 148.281 55.792C148.345 55.856 148.377 55.9413 148.377 56.048V63.632C148.377 63.7387 148.345 63.8293 148.281 63.904C148.217 63.968 148.127 64 148.009 64H147.273C147.167 64 147.076 63.968 147.001 63.904C146.937 63.8293 146.905 63.7387 146.905 63.632V62.928C146.617 63.3013 146.265 63.6 145.849 63.824C145.444 64.048 144.905 64.16 144.233 64.16ZM145.625 54.064C145.508 54.064 145.417 54.032 145.353 53.968C145.289 53.904 145.257 53.8187 145.257 53.712V52.848C145.257 52.7413 145.289 52.656 145.353 52.592C145.417 52.5173 145.508 52.48 145.625 52.48H146.489C146.596 52.48 146.681 52.5173 146.745 52.592C146.82 52.656 146.857 52.7413 146.857 52.848V53.712C146.857 53.8187 146.82 53.904 146.745 53.968C146.681 54.032 146.596 54.064 146.489 54.064H145.625ZM142.905 54.064C142.799 54.064 142.713 54.032 142.649 53.968C142.585 53.904 142.553 53.8187 142.553 53.712V52.848C142.553 52.7413 142.585 52.656 142.649 52.592C142.713 52.5173 142.799 52.48 142.905 52.48H143.785C143.892 52.48 143.977 52.5173 144.041 52.592C144.116 52.656 144.153 52.7413 144.153 52.848V53.712C144.153 53.8187 144.116 53.904 144.041 53.968C143.977 54.032 143.892 54.064 143.785 54.064H142.905ZM153.842 67.52C153.554 67.5093 153.293 67.456 153.058 67.36C152.824 67.264 152.658 67.152 152.562 67.024C152.466 66.896 152.461 66.7893 152.546 66.704L152.802 66.48C152.898 66.3947 152.978 66.3733 153.042 66.416C153.117 66.4693 153.213 66.5333 153.33 66.608C153.448 66.6827 153.618 66.72 153.842 66.72C154.024 66.72 154.173 66.6667 154.29 66.56C154.418 66.4533 154.482 66.3093 154.482 66.128C154.482 65.9573 154.418 65.8187 154.29 65.712C154.173 65.616 154.024 65.568 153.842 65.568C153.693 65.568 153.56 65.5893 153.442 65.632C153.336 65.6747 153.24 65.7013 153.154 65.712C153.069 65.7333 152.984 65.7013 152.898 65.616L152.626 65.328C152.573 65.264 152.557 65.1893 152.578 65.104C152.61 65.0187 152.648 64.9333 152.69 64.848L152.994 64.112C152.344 64.0373 151.816 63.8827 151.41 63.648C151.016 63.4027 150.722 63.1467 150.53 62.88C150.349 62.6133 150.253 62.4 150.242 62.24C150.232 62.1227 150.269 62.032 150.354 61.968C150.44 61.904 150.525 61.872 150.61 61.872H151.298C151.352 61.872 151.4 61.8827 151.442 61.904C151.485 61.9147 151.538 61.9573 151.602 62.032C151.752 62.1813 151.906 62.3307 152.066 62.48C152.237 62.6293 152.45 62.752 152.706 62.848C152.962 62.944 153.277 62.992 153.65 62.992C154.194 62.992 154.642 62.8907 154.994 62.688C155.346 62.4747 155.522 62.1653 155.522 61.76C155.522 61.4933 155.448 61.28 155.298 61.12C155.16 60.96 154.904 60.816 154.53 60.688C154.168 60.56 153.666 60.4267 153.026 60.288C152.386 60.1387 151.88 59.9573 151.506 59.744C151.133 59.52 150.866 59.2587 150.706 58.96C150.546 58.6507 150.466 58.304 150.466 57.92C150.466 57.5253 150.584 57.1467 150.818 56.784C151.053 56.4107 151.394 56.1067 151.842 55.872C152.301 55.6373 152.872 55.52 153.554 55.52C154.109 55.52 154.584 55.5893 154.978 55.728C155.373 55.8667 155.698 56.0427 155.954 56.256C156.21 56.4587 156.402 56.6613 156.53 56.864C156.658 57.0667 156.728 57.2373 156.738 57.376C156.749 57.4827 156.717 57.5733 156.642 57.648C156.568 57.712 156.482 57.744 156.386 57.744H155.714C155.64 57.744 155.576 57.728 155.522 57.696C155.48 57.664 155.437 57.6267 155.394 57.584C155.288 57.4453 155.16 57.3067 155.01 57.168C154.872 57.0293 154.685 56.9173 154.45 56.832C154.226 56.736 153.928 56.688 153.554 56.688C153.021 56.688 152.621 56.8 152.354 57.024C152.088 57.248 151.954 57.5307 151.954 57.872C151.954 58.0747 152.013 58.256 152.13 58.416C152.248 58.576 152.472 58.72 152.802 58.848C153.133 58.976 153.624 59.1147 154.274 59.264C154.978 59.4027 155.533 59.5893 155.938 59.824C156.344 60.0587 156.632 60.3307 156.802 60.64C156.973 60.9493 157.058 61.3067 157.058 61.712C157.058 62.3627 156.786 62.9227 156.242 63.392C155.709 63.8507 154.93 64.1067 153.906 64.16L153.554 64.896C153.618 64.8533 153.704 64.8213 153.81 64.8C153.928 64.7787 154.034 64.768 154.13 64.768C154.493 64.768 154.786 64.8907 155.01 65.136C155.245 65.392 155.362 65.7173 155.362 66.112C155.362 66.496 155.234 66.8267 154.978 67.104C154.722 67.392 154.344 67.5307 153.842 67.52ZM159.295 64C159.188 64 159.097 63.968 159.023 63.904C158.959 63.8293 158.927 63.7387 158.927 63.632V53.008C158.927 52.9013 158.959 52.816 159.023 52.752C159.097 52.6773 159.188 52.64 159.295 52.64H160.047C160.164 52.64 160.255 52.6773 160.319 52.752C160.383 52.816 160.415 52.9013 160.415 53.008V63.632C160.415 63.7387 160.383 63.8293 160.319 63.904C160.255 63.968 160.164 64 160.047 64H159.295ZM163.325 64C163.219 64 163.128 63.968 163.053 63.904C162.989 63.8293 162.957 63.7387 162.957 63.632V56.048C162.957 55.9413 162.989 55.856 163.053 55.792C163.128 55.7173 163.219 55.68 163.325 55.68H164.093C164.2 55.68 164.285 55.7173 164.349 55.792C164.413 55.856 164.445 55.9413 164.445 56.048V63.632C164.445 63.7387 164.413 63.8293 164.349 63.904C164.285 63.968 164.2 64 164.093 64H163.325ZM163.197 54.128C163.091 54.128 163 54.096 162.925 54.032C162.861 53.9573 162.829 53.8667 162.829 53.76V52.896C162.829 52.7893 162.861 52.704 162.925 52.64C163 52.5653 163.091 52.528 163.197 52.528H164.205C164.312 52.528 164.397 52.5653 164.461 52.64C164.536 52.704 164.573 52.7893 164.573 52.896V53.76C164.573 53.8667 164.536 53.9573 164.461 54.032C164.397 54.096 164.312 54.128 164.205 54.128H163.197ZM171.138 67.04C171.032 67.04 170.941 67.0027 170.866 66.928C170.802 66.864 170.77 66.7787 170.77 66.672V56.048C170.77 55.9413 170.802 55.856 170.866 55.792C170.941 55.7173 171.032 55.68 171.138 55.68H171.874C171.981 55.68 172.066 55.7173 172.13 55.792C172.205 55.856 172.242 55.9413 172.242 56.048V56.752C172.498 56.4 172.84 56.1067 173.266 55.872C173.693 55.6373 174.226 55.52 174.866 55.52C175.464 55.52 175.97 55.6213 176.386 55.824C176.813 56.0267 177.16 56.304 177.426 56.656C177.704 57.008 177.912 57.408 178.05 57.856C178.189 58.304 178.264 58.784 178.274 59.296C178.285 59.4667 178.29 59.648 178.29 59.84C178.29 60.032 178.285 60.2133 178.274 60.384C178.264 60.8853 178.189 61.3653 178.05 61.824C177.912 62.272 177.704 62.672 177.426 63.024C177.16 63.3653 176.813 63.6427 176.386 63.856C175.97 64.0587 175.464 64.16 174.866 64.16C174.248 64.16 173.725 64.048 173.298 63.824C172.882 63.5893 172.541 63.3013 172.274 62.96V66.672C172.274 66.7787 172.242 66.864 172.178 66.928C172.114 67.0027 172.024 67.04 171.906 67.04H171.138ZM174.53 62.864C175.085 62.864 175.517 62.7467 175.826 62.512C176.146 62.2667 176.376 61.952 176.514 61.568C176.653 61.1733 176.733 60.752 176.754 60.304C176.765 59.9947 176.765 59.6853 176.754 59.376C176.733 58.928 176.653 58.512 176.514 58.128C176.376 57.7333 176.146 57.4187 175.826 57.184C175.517 56.9387 175.085 56.816 174.53 56.816C174.008 56.816 173.581 56.9387 173.25 57.184C172.93 57.4293 172.69 57.744 172.53 58.128C172.381 58.5013 172.296 58.8853 172.274 59.28C172.264 59.4507 172.258 59.6533 172.258 59.888C172.258 60.1227 172.264 60.3307 172.274 60.512C172.285 60.8853 172.37 61.2533 172.53 61.616C172.701 61.9787 172.952 62.2773 173.282 62.512C173.613 62.7467 174.029 62.864 174.53 62.864ZM182.606 64.16C182.072 64.16 181.587 64.0533 181.15 63.84C180.712 63.6267 180.36 63.3387 180.094 62.976C179.827 62.6133 179.694 62.2027 179.694 61.744C179.694 61.008 179.992 60.4213 180.59 59.984C181.187 59.5467 181.966 59.2587 182.926 59.12L185.31 58.784V58.32C185.31 57.808 185.16 57.408 184.862 57.12C184.574 56.832 184.099 56.688 183.438 56.688C182.958 56.688 182.568 56.784 182.27 56.976C181.982 57.168 181.779 57.4133 181.662 57.712C181.598 57.872 181.486 57.952 181.326 57.952H180.606C180.488 57.952 180.398 57.92 180.334 57.856C180.28 57.7813 180.254 57.696 180.254 57.6C180.254 57.44 180.312 57.2427 180.43 57.008C180.558 56.7733 180.75 56.544 181.006 56.32C181.262 56.096 181.587 55.9093 181.982 55.76C182.387 55.6 182.878 55.52 183.454 55.52C184.094 55.52 184.632 55.6053 185.07 55.776C185.507 55.936 185.848 56.1547 186.094 56.432C186.35 56.7093 186.531 57.024 186.638 57.376C186.755 57.728 186.814 58.0853 186.814 58.448V63.632C186.814 63.7387 186.776 63.8293 186.702 63.904C186.638 63.968 186.552 64 186.446 64H185.71C185.592 64 185.502 63.968 185.438 63.904C185.374 63.8293 185.342 63.7387 185.342 63.632V62.944C185.203 63.136 185.016 63.328 184.782 63.52C184.547 63.7013 184.254 63.856 183.902 63.984C183.55 64.1013 183.118 64.16 182.606 64.16ZM182.942 62.96C183.379 62.96 183.779 62.8693 184.142 62.688C184.504 62.496 184.787 62.2027 184.99 61.808C185.203 61.4133 185.31 60.9173 185.31 60.32V59.872L183.454 60.144C182.696 60.2507 182.126 60.432 181.742 60.688C181.358 60.9333 181.166 61.248 181.166 61.632C181.166 61.9307 181.251 62.1813 181.422 62.384C181.603 62.576 181.827 62.72 182.094 62.816C182.371 62.912 182.654 62.96 182.942 62.96ZM190.398 67.04C190.312 67.04 190.238 67.008 190.174 66.944C190.11 66.88 190.078 66.8053 190.078 66.72C190.078 66.6773 190.083 66.6347 190.094 66.592C190.104 66.5493 190.126 66.496 190.158 66.432L191.39 63.504L188.334 56.288C188.28 56.16 188.254 56.0693 188.254 56.016C188.254 55.92 188.286 55.84 188.35 55.776C188.414 55.712 188.494 55.68 188.59 55.68H189.374C189.48 55.68 189.566 55.7067 189.63 55.76C189.694 55.8133 189.736 55.8773 189.758 55.952L192.19 61.776L194.686 55.952C194.718 55.8773 194.76 55.8133 194.814 55.76C194.878 55.7067 194.968 55.68 195.086 55.68H195.838C195.934 55.68 196.014 55.712 196.078 55.776C196.142 55.84 196.174 55.9147 196.174 56C196.174 56.0533 196.147 56.1493 196.094 56.288L191.55 66.768C191.518 66.8427 191.47 66.9067 191.406 66.96C191.352 67.0133 191.267 67.04 191.15 67.04H190.398ZM191.694 54.48C191.523 54.48 191.438 54.3947 191.438 54.224C191.438 54.1387 191.464 54.0693 191.518 54.016L192.718 52.576C192.814 52.4587 192.899 52.384 192.974 52.352C193.048 52.3093 193.16 52.288 193.31 52.288H194.398C194.6 52.288 194.702 52.3893 194.702 52.592C194.702 52.6667 194.675 52.7307 194.622 52.784L192.766 54.304C192.68 54.3787 192.6 54.4267 192.526 54.448C192.451 54.4693 192.355 54.48 192.238 54.48H191.694ZM200.513 64.16C199.926 64.16 199.42 64.0587 198.993 63.856C198.566 63.6427 198.214 63.36 197.937 63.008C197.67 62.6453 197.468 62.2347 197.329 61.776C197.201 61.3173 197.126 60.832 197.105 60.32C197.094 60.1493 197.089 59.9893 197.089 59.84C197.089 59.6907 197.094 59.5307 197.105 59.36C197.126 58.8587 197.201 58.3787 197.329 57.92C197.468 57.4613 197.67 57.0507 197.937 56.688C198.214 56.3253 198.566 56.0427 198.993 55.84C199.42 55.6267 199.926 55.52 200.513 55.52C201.142 55.52 201.665 55.632 202.081 55.856C202.497 56.08 202.838 56.3573 203.105 56.688V53.008C203.105 52.9013 203.137 52.816 203.201 52.752C203.276 52.6773 203.366 52.64 203.473 52.64H204.241C204.348 52.64 204.433 52.6773 204.497 52.752C204.572 52.816 204.609 52.9013 204.609 53.008V63.632C204.609 63.7387 204.572 63.8293 204.497 63.904C204.433 63.968 204.348 64 204.241 64H203.521C203.404 64 203.313 63.968 203.249 63.904C203.185 63.8293 203.153 63.7387 203.153 63.632V62.96C202.886 63.3013 202.54 63.5893 202.113 63.824C201.686 64.048 201.153 64.16 200.513 64.16ZM200.849 62.864C201.382 62.864 201.809 62.7413 202.129 62.496C202.449 62.2507 202.689 61.9413 202.849 61.568C203.009 61.184 203.094 60.7947 203.105 60.4C203.116 60.2293 203.121 60.0267 203.121 59.792C203.121 59.5467 203.116 59.3387 203.105 59.168C203.094 58.7947 203.004 58.4267 202.833 58.064C202.673 57.7013 202.428 57.4027 202.097 57.168C201.777 56.9333 201.361 56.816 200.849 56.816C200.305 56.816 199.873 56.9387 199.553 57.184C199.233 57.4187 199.004 57.7333 198.865 58.128C198.726 58.512 198.646 58.928 198.625 59.376C198.614 59.6853 198.614 59.9947 198.625 60.304C198.646 60.752 198.726 61.1733 198.865 61.568C199.004 61.952 199.233 62.2667 199.553 62.512C199.873 62.7467 200.305 62.864 200.849 62.864ZM209.309 64.16C208.775 64.16 208.29 64.0533 207.853 63.84C207.415 63.6267 207.063 63.3387 206.797 62.976C206.53 62.6133 206.397 62.2027 206.397 61.744C206.397 61.008 206.695 60.4213 207.293 59.984C207.89 59.5467 208.669 59.2587 209.629 59.12L212.013 58.784V58.32C212.013 57.808 211.863 57.408 211.565 57.12C211.277 56.832 210.802 56.688 210.141 56.688C209.661 56.688 209.271 56.784 208.973 56.976C208.685 57.168 208.482 57.4133 208.365 57.712C208.301 57.872 208.189 57.952 208.029 57.952H207.309C207.191 57.952 207.101 57.92 207.037 57.856C206.983 57.7813 206.957 57.696 206.957 57.6C206.957 57.44 207.015 57.2427 207.133 57.008C207.261 56.7733 207.453 56.544 207.709 56.32C207.965 56.096 208.29 55.9093 208.685 55.76C209.09 55.6 209.581 55.52 210.157 55.52C210.797 55.52 211.335 55.6053 211.773 55.776C212.21 55.936 212.551 56.1547 212.797 56.432C213.053 56.7093 213.234 57.024 213.341 57.376C213.458 57.728 213.517 58.0853 213.517 58.448V63.632C213.517 63.7387 213.479 63.8293 213.405 63.904C213.341 63.968 213.255 64 213.149 64H212.413C212.295 64 212.205 63.968 212.141 63.904C212.077 63.8293 212.045 63.7387 212.045 63.632V62.944C211.906 63.136 211.719 63.328 211.485 63.52C211.25 63.7013 210.957 63.856 210.605 63.984C210.253 64.1013 209.821 64.16 209.309 64.16ZM209.645 62.96C210.082 62.96 210.482 62.8693 210.845 62.688C211.207 62.496 211.49 62.2027 211.693 61.808C211.906 61.4133 212.013 60.9173 212.013 60.32V59.872L210.157 60.144C209.399 60.2507 208.829 60.432 208.445 60.688C208.061 60.9333 207.869 61.248 207.869 61.632C207.869 61.9307 207.954 62.1813 208.125 62.384C208.306 62.576 208.53 62.72 208.797 62.816C209.074 62.912 209.357 62.96 209.645 62.96ZM216.185 64C216.078 64 215.987 63.968 215.913 63.904C215.849 63.8293 215.817 63.7387 215.817 63.632V56.064C215.817 55.9573 215.849 55.8667 215.913 55.792C215.987 55.7173 216.078 55.68 216.185 55.68H216.921C217.027 55.68 217.118 55.7173 217.193 55.792C217.267 55.8667 217.305 55.9573 217.305 56.064V56.768C217.518 56.4053 217.811 56.1333 218.185 55.952C218.558 55.7707 219.006 55.68 219.529 55.68H220.169C220.275 55.68 220.361 55.7173 220.425 55.792C220.489 55.856 220.521 55.9413 220.521 56.048V56.704C220.521 56.8107 220.489 56.896 220.425 56.96C220.361 57.024 220.275 57.056 220.169 57.056H219.209C218.633 57.056 218.179 57.2267 217.849 57.568C217.518 57.8987 217.353 58.352 217.353 58.928V63.632C217.353 63.7387 217.315 63.8293 217.241 63.904C217.166 63.968 217.075 64 216.969 64H216.185ZM222.279 64C222.172 64 222.082 63.968 222.007 63.904C221.943 63.8293 221.911 63.7387 221.911 63.632V53.008C221.911 52.9013 221.943 52.816 222.007 52.752C222.082 52.6773 222.172 52.64 222.279 52.64H223.031C223.148 52.64 223.239 52.6773 223.303 52.752C223.367 52.816 223.399 52.9013 223.399 53.008V63.632C223.399 63.7387 223.367 63.8293 223.303 63.904C223.239 63.968 223.148 64 223.031 64H222.279ZM228.106 64.16C227.572 64.16 227.087 64.0533 226.65 63.84C226.212 63.6267 225.86 63.3387 225.594 62.976C225.327 62.6133 225.194 62.2027 225.194 61.744C225.194 61.008 225.492 60.4213 226.09 59.984C226.687 59.5467 227.466 59.2587 228.426 59.12L230.81 58.784V58.32C230.81 57.808 230.66 57.408 230.362 57.12C230.074 56.832 229.599 56.688 228.938 56.688C228.458 56.688 228.068 56.784 227.77 56.976C227.482 57.168 227.279 57.4133 227.162 57.712C227.098 57.872 226.986 57.952 226.826 57.952H226.106C225.988 57.952 225.898 57.92 225.834 57.856C225.78 57.7813 225.754 57.696 225.754 57.6C225.754 57.44 225.812 57.2427 225.93 57.008C226.058 56.7733 226.25 56.544 226.506 56.32C226.762 56.096 227.087 55.9093 227.482 55.76C227.887 55.6 228.378 55.52 228.954 55.52C229.594 55.52 230.132 55.6053 230.57 55.776C231.007 55.936 231.348 56.1547 231.594 56.432C231.85 56.7093 232.031 57.024 232.138 57.376C232.255 57.728 232.314 58.0853 232.314 58.448V63.632C232.314 63.7387 232.276 63.8293 232.202 63.904C232.138 63.968 232.052 64 231.946 64H231.21C231.092 64 231.002 63.968 230.938 63.904C230.874 63.8293 230.842 63.7387 230.842 63.632V62.944C230.703 63.136 230.516 63.328 230.282 63.52C230.047 63.7013 229.754 63.856 229.402 63.984C229.05 64.1013 228.618 64.16 228.106 64.16ZM228.442 62.96C228.879 62.96 229.279 62.8693 229.642 62.688C230.004 62.496 230.287 62.2027 230.49 61.808C230.703 61.4133 230.81 60.9173 230.81 60.32V59.872L228.954 60.144C228.196 60.2507 227.626 60.432 227.242 60.688C226.858 60.9333 226.666 61.248 226.666 61.632C226.666 61.9307 226.751 62.1813 226.922 62.384C227.103 62.576 227.327 62.72 227.594 62.816C227.871 62.912 228.154 62.96 228.442 62.96ZM234.982 64C234.875 64 234.784 63.968 234.71 63.904C234.646 63.8293 234.614 63.7387 234.614 63.632V56.064C234.614 55.9573 234.646 55.8667 234.71 55.792C234.784 55.7173 234.875 55.68 234.982 55.68H235.718C235.824 55.68 235.915 55.7173 235.99 55.792C236.064 55.8667 236.102 55.9573 236.102 56.064V56.768C236.315 56.4053 236.608 56.1333 236.982 55.952C237.355 55.7707 237.803 55.68 238.326 55.68H238.966C239.072 55.68 239.158 55.7173 239.222 55.792C239.286 55.856 239.318 55.9413 239.318 56.048V56.704C239.318 56.8107 239.286 56.896 239.222 56.96C239.158 57.024 239.072 57.056 238.966 57.056H238.006C237.43 57.056 236.976 57.2267 236.646 57.568C236.315 57.8987 236.15 58.352 236.15 58.928V63.632C236.15 63.7387 236.112 63.8293 236.038 63.904C235.963 63.968 235.872 64 235.766 64H234.982ZM242.879 67.04C242.772 67.04 242.687 67.0027 242.623 66.928C242.548 66.864 242.511 66.7787 242.511 66.672V66.128C242.511 66.0213 242.548 65.9307 242.623 65.856C242.687 65.792 242.772 65.76 242.879 65.76H243.103C243.487 65.76 243.769 65.6853 243.951 65.536C244.132 65.3973 244.249 65.2107 244.303 64.976C244.367 64.7413 244.399 64.4747 244.399 64.176V56.048C244.399 55.9413 244.431 55.856 244.495 55.792C244.569 55.7173 244.66 55.68 244.767 55.68H245.551C245.657 55.68 245.743 55.7173 245.807 55.792C245.881 55.856 245.919 55.9413 245.919 56.048V64.192C245.919 64.7573 245.828 65.2533 245.647 65.68C245.476 66.1067 245.193 66.4373 244.799 66.672C244.404 66.9173 243.865 67.04 243.183 67.04H242.879ZM244.639 54.128C244.532 54.128 244.441 54.096 244.367 54.032C244.303 53.9573 244.271 53.8667 244.271 53.76V52.896C244.271 52.7893 244.303 52.704 244.367 52.64C244.441 52.5653 244.532 52.528 244.639 52.528H245.663C245.769 52.528 245.86 52.5653 245.935 52.64C246.009 52.704 246.047 52.7893 246.047 52.896V53.76C246.047 53.8667 246.009 53.9573 245.935 54.032C245.86 54.096 245.769 54.128 245.663 54.128H244.639ZM251.644 64.16C250.546 64.16 249.671 63.824 249.02 63.152C248.37 62.4693 248.012 61.5413 247.948 60.368C247.938 60.2293 247.932 60.0533 247.932 59.84C247.932 59.616 247.938 59.4347 247.948 59.296C247.991 58.5387 248.167 57.8773 248.476 57.312C248.786 56.736 249.207 56.2933 249.74 55.984C250.284 55.6747 250.919 55.52 251.644 55.52C252.455 55.52 253.132 55.6907 253.676 56.032C254.231 56.3733 254.652 56.8587 254.94 57.488C255.228 58.1173 255.372 58.8533 255.372 59.696V59.968C255.372 60.0853 255.335 60.176 255.26 60.24C255.196 60.304 255.111 60.336 255.004 60.336H249.468C249.468 60.3467 249.468 60.368 249.468 60.4C249.468 60.432 249.468 60.4587 249.468 60.48C249.49 60.9173 249.586 61.328 249.756 61.712C249.927 62.0853 250.172 62.3893 250.492 62.624C250.812 62.8587 251.196 62.976 251.644 62.976C252.028 62.976 252.348 62.9173 252.604 62.8C252.86 62.6827 253.068 62.5547 253.228 62.416C253.388 62.2667 253.495 62.1547 253.548 62.08C253.644 61.9413 253.719 61.8613 253.772 61.84C253.826 61.808 253.911 61.792 254.028 61.792H254.796C254.903 61.792 254.988 61.824 255.052 61.888C255.127 61.9413 255.159 62.0213 255.148 62.128C255.138 62.288 255.052 62.4853 254.892 62.72C254.732 62.944 254.503 63.168 254.204 63.392C253.906 63.616 253.543 63.8027 253.116 63.952C252.69 64.0907 252.199 64.16 251.644 64.16ZM249.468 59.232H253.852V59.184C253.852 58.704 253.762 58.2773 253.58 57.904C253.41 57.5307 253.159 57.2373 252.828 57.024C252.498 56.8 252.103 56.688 251.644 56.688C251.186 56.688 250.791 56.8 250.46 57.024C250.14 57.2373 249.895 57.5307 249.724 57.904C249.554 58.2773 249.468 58.704 249.468 59.184V59.232ZM257.654 64C257.547 64 257.456 63.968 257.382 63.904C257.318 63.8293 257.286 63.7387 257.286 63.632V56.048C257.286 55.9413 257.318 55.856 257.382 55.792C257.456 55.7173 257.547 55.68 257.654 55.68H258.374C258.48 55.68 258.566 55.7173 258.63 55.792C258.704 55.856 258.742 55.9413 258.742 56.048V56.608C258.987 56.2773 259.296 56.016 259.67 55.824C260.043 55.6213 260.491 55.52 261.014 55.52C262.219 55.5093 263.072 56 263.574 56.992C263.819 56.544 264.176 56.1867 264.646 55.92C265.115 55.6533 265.648 55.52 266.246 55.52C266.8 55.52 267.302 55.648 267.75 55.904C268.208 56.16 268.566 56.5493 268.822 57.072C269.088 57.584 269.222 58.2293 269.222 59.008V63.632C269.222 63.7387 269.184 63.8293 269.11 63.904C269.046 63.968 268.96 64 268.854 64H268.102C267.995 64 267.904 63.968 267.83 63.904C267.766 63.8293 267.734 63.7387 267.734 63.632V59.152C267.734 58.5547 267.648 58.0853 267.478 57.744C267.307 57.4027 267.078 57.1627 266.79 57.024C266.502 56.8853 266.187 56.816 265.846 56.816C265.568 56.816 265.286 56.8853 264.998 57.024C264.71 57.1627 264.47 57.4027 264.278 57.744C264.096 58.0853 264.006 58.5547 264.006 59.152V63.632C264.006 63.7387 263.968 63.8293 263.894 63.904C263.83 63.968 263.744 64 263.638 64H262.886C262.779 64 262.688 63.968 262.614 63.904C262.55 63.8293 262.518 63.7387 262.518 63.632V59.152C262.518 58.5547 262.427 58.0853 262.246 57.744C262.064 57.4027 261.83 57.1627 261.542 57.024C261.254 56.8853 260.95 56.816 260.63 56.816C260.352 56.816 260.07 56.8853 259.782 57.024C259.494 57.1627 259.254 57.4027 259.062 57.744C258.88 58.0853 258.79 58.5493 258.79 59.136V63.632C258.79 63.7387 258.752 63.8293 258.678 63.904C258.614 63.968 258.528 64 258.422 64H257.654ZM274.912 67.52C274.187 67.52 273.59 67.424 273.12 67.232C272.662 67.04 272.299 66.8053 272.032 66.528C271.776 66.2613 271.59 65.9893 271.472 65.712C271.366 65.4453 271.307 65.232 271.296 65.072C271.286 64.9653 271.318 64.8747 271.392 64.8C271.478 64.7253 271.568 64.688 271.664 64.688H272.432C272.528 64.688 272.608 64.7093 272.672 64.752C272.736 64.7947 272.79 64.8853 272.832 65.024C272.896 65.184 272.992 65.36 273.12 65.552C273.248 65.7547 273.446 65.9253 273.712 66.064C273.979 66.2133 274.352 66.288 274.832 66.288C275.334 66.288 275.755 66.2187 276.096 66.08C276.438 65.952 276.694 65.7173 276.864 65.376C277.046 65.0453 277.136 64.5867 277.136 64V62.912C276.88 63.2427 276.544 63.52 276.128 63.744C275.712 63.9573 275.19 64.064 274.56 64.064C273.963 64.064 273.451 63.9627 273.024 63.76C272.598 63.5467 272.246 63.264 271.968 62.912C271.702 62.5493 271.499 62.1387 271.36 61.68C271.232 61.2213 271.158 60.7413 271.136 60.24C271.126 59.9413 271.126 59.648 271.136 59.36C271.158 58.8587 271.232 58.3787 271.36 57.92C271.499 57.4613 271.702 57.0507 271.968 56.688C272.246 56.3253 272.598 56.0427 273.024 55.84C273.451 55.6267 273.963 55.52 274.56 55.52C275.2 55.52 275.728 55.6427 276.144 55.888C276.571 56.1227 276.918 56.4107 277.184 56.752V56.064C277.184 55.9573 277.216 55.8667 277.28 55.792C277.355 55.7173 277.446 55.68 277.552 55.68H278.288C278.395 55.68 278.486 55.7173 278.56 55.792C278.635 55.8667 278.672 55.9573 278.672 56.064V63.824C278.672 64.5387 278.55 65.1733 278.304 65.728C278.07 66.2827 277.675 66.72 277.12 67.04C276.576 67.36 275.84 67.52 274.912 67.52ZM274.88 62.784C275.414 62.784 275.84 62.6613 276.16 62.416C276.491 62.1707 276.731 61.8613 276.88 61.488C277.04 61.1147 277.126 60.736 277.136 60.352C277.147 60.2027 277.152 60.0213 277.152 59.808C277.152 59.584 277.147 59.3973 277.136 59.248C277.126 58.864 277.04 58.4853 276.88 58.112C276.731 57.7387 276.491 57.4293 276.16 57.184C275.84 56.9387 275.414 56.816 274.88 56.816C274.347 56.816 273.92 56.9387 273.6 57.184C273.28 57.4187 273.051 57.7333 272.912 58.128C272.774 58.512 272.694 58.928 272.672 59.376C272.662 59.6533 272.662 59.936 272.672 60.224C272.694 60.672 272.774 61.0933 272.912 61.488C273.051 61.872 273.28 62.1867 273.6 62.432C273.92 62.6667 274.347 62.784 274.88 62.784ZM282.507 67.04C282.422 67.04 282.347 67.008 282.283 66.944C282.219 66.88 282.187 66.8053 282.187 66.72C282.187 66.6773 282.193 66.6347 282.203 66.592C282.214 66.5493 282.235 66.496 282.267 66.432L283.499 63.504L280.443 56.288C280.39 56.16 280.363 56.0693 280.363 56.016C280.363 55.92 280.395 55.84 280.459 55.776C280.523 55.712 280.603 55.68 280.699 55.68H281.483C281.59 55.68 281.675 55.7067 281.739 55.76C281.803 55.8133 281.846 55.8773 281.867 55.952L284.299 61.776L286.795 55.952C286.827 55.8773 286.87 55.8133 286.923 55.76C286.987 55.7067 287.078 55.68 287.195 55.68H287.947C288.043 55.68 288.123 55.712 288.187 55.776C288.251 55.84 288.283 55.9147 288.283 56C288.283 56.0533 288.257 56.1493 288.203 56.288L283.659 66.768C283.627 66.8427 283.579 66.9067 283.515 66.96C283.462 67.0133 283.377 67.04 283.259 67.04H282.507ZM291.32 67.04C291.234 67.04 291.16 67.008 291.096 66.944C291.032 66.88 291 66.8053 291 66.72C291 66.6773 291.005 66.6347 291.016 66.592C291.026 66.5493 291.048 66.496 291.08 66.432L292.312 63.504L289.256 56.288C289.202 56.16 289.176 56.0693 289.176 56.016C289.176 55.92 289.208 55.84 289.272 55.776C289.336 55.712 289.416 55.68 289.512 55.68H290.296C290.402 55.68 290.488 55.7067 290.552 55.76C290.616 55.8133 290.658 55.8773 290.68 55.952L293.112 61.776L295.608 55.952C295.64 55.8773 295.682 55.8133 295.736 55.76C295.8 55.7067 295.89 55.68 296.008 55.68H296.76C296.856 55.68 296.936 55.712 297 55.776C297.064 55.84 297.096 55.9147 297.096 56C297.096 56.0533 297.069 56.1493 297.016 56.288L292.472 66.768C292.44 66.8427 292.392 66.9067 292.328 66.96C292.274 67.0133 292.189 67.04 292.072 67.04H291.32ZM292.616 54.48C292.445 54.48 292.36 54.3947 292.36 54.224C292.36 54.1387 292.386 54.0693 292.44 54.016L293.64 52.576C293.736 52.4587 293.821 52.384 293.896 52.352C293.97 52.3093 294.082 52.288 294.232 52.288H295.32C295.522 52.288 295.624 52.3893 295.624 52.592C295.624 52.6667 295.597 52.7307 295.544 52.784L293.688 54.304C293.602 54.3787 293.522 54.4267 293.448 54.448C293.373 54.4693 293.277 54.48 293.16 54.48H292.616ZM301.707 64.16C300.608 64.16 299.734 63.824 299.083 63.152C298.432 62.4693 298.075 61.5413 298.011 60.368C298 60.2293 297.995 60.0533 297.995 59.84C297.995 59.616 298 59.4347 298.011 59.296C298.054 58.5387 298.23 57.8773 298.539 57.312C298.848 56.736 299.27 56.2933 299.803 55.984C300.347 55.6747 300.982 55.52 301.707 55.52C302.518 55.52 303.195 55.6907 303.739 56.032C304.294 56.3733 304.715 56.8587 305.003 57.488C305.291 58.1173 305.435 58.8533 305.435 59.696V59.968C305.435 60.0853 305.398 60.176 305.323 60.24C305.259 60.304 305.174 60.336 305.067 60.336H299.531C299.531 60.3467 299.531 60.368 299.531 60.4C299.531 60.432 299.531 60.4587 299.531 60.48C299.552 60.9173 299.648 61.328 299.819 61.712C299.99 62.0853 300.235 62.3893 300.555 62.624C300.875 62.8587 301.259 62.976 301.707 62.976C302.091 62.976 302.411 62.9173 302.667 62.8C302.923 62.6827 303.131 62.5547 303.291 62.416C303.451 62.2667 303.558 62.1547 303.611 62.08C303.707 61.9413 303.782 61.8613 303.835 61.84C303.888 61.808 303.974 61.792 304.091 61.792H304.859C304.966 61.792 305.051 61.824 305.115 61.888C305.19 61.9413 305.222 62.0213 305.211 62.128C305.2 62.288 305.115 62.4853 304.955 62.72C304.795 62.944 304.566 63.168 304.267 63.392C303.968 63.616 303.606 63.8027 303.179 63.952C302.752 64.0907 302.262 64.16 301.707 64.16ZM299.531 59.232H303.915V59.184C303.915 58.704 303.824 58.2773 303.643 57.904C303.472 57.5307 303.222 57.2373 302.891 57.024C302.56 56.8 302.166 56.688 301.707 56.688C301.248 56.688 300.854 56.8 300.523 57.024C300.203 57.2373 299.958 57.5307 299.787 57.904C299.616 58.2773 299.531 58.704 299.531 59.184V59.232ZM310.549 64C309.952 64 309.467 63.888 309.093 63.664C308.72 63.4293 308.448 63.104 308.277 62.688C308.107 62.2613 308.021 61.76 308.021 61.184V56.96H306.773C306.667 56.96 306.576 56.928 306.501 56.864C306.437 56.7893 306.405 56.6987 306.405 56.592V56.048C306.405 55.9413 306.437 55.856 306.501 55.792C306.576 55.7173 306.667 55.68 306.773 55.68H308.021V53.008C308.021 52.9013 308.053 52.816 308.117 52.752C308.192 52.6773 308.283 52.64 308.389 52.64H309.141C309.248 52.64 309.333 52.6773 309.397 52.752C309.472 52.816 309.509 52.9013 309.509 53.008V55.68H311.493C311.6 55.68 311.685 55.7173 311.749 55.792C311.824 55.856 311.861 55.9413 311.861 56.048V56.592C311.861 56.6987 311.824 56.7893 311.749 56.864C311.685 56.928 311.6 56.96 311.493 56.96H309.509V61.072C309.509 61.5733 309.595 61.968 309.765 62.256C309.936 62.544 310.24 62.688 310.677 62.688H311.653C311.76 62.688 311.845 62.7253 311.909 62.8C311.984 62.864 312.021 62.9493 312.021 63.056V63.632C312.021 63.7387 311.984 63.8293 311.909 63.904C311.845 63.968 311.76 64 311.653 64H310.549ZM313.919 64C313.813 64 313.722 63.968 313.647 63.904C313.583 63.8293 313.551 63.7387 313.551 63.632V56.048C313.551 55.9413 313.583 55.856 313.647 55.792C313.722 55.7173 313.813 55.68 313.919 55.68H314.687C314.794 55.68 314.879 55.7173 314.943 55.792C315.007 55.856 315.039 55.9413 315.039 56.048V63.632C315.039 63.7387 315.007 63.8293 314.943 63.904C314.879 63.968 314.794 64 314.687 64H313.919ZM313.791 54.128C313.685 54.128 313.594 54.096 313.519 54.032C313.455 53.9573 313.423 53.8667 313.423 53.76V52.896C313.423 52.7893 313.455 52.704 313.519 52.64C313.594 52.5653 313.685 52.528 313.791 52.528H314.799C314.906 52.528 314.991 52.5653 315.055 52.64C315.13 52.704 315.167 52.7893 315.167 52.896V53.76C315.167 53.8667 315.13 53.9573 315.055 54.032C314.991 54.096 314.906 54.128 314.799 54.128H313.791Z" fill="white"/>
</svg>
