<svg width="40" height="68" viewBox="0 0 40 68" fill="none" xmlns="http://www.w3.org/2000/svg">
<path d="M29.4593 55.1697C29.1419 55.1697 28.8446 55.1107 28.5675 54.9926C28.2903 54.8701 28.0467 54.7017 27.8366 54.4874C27.6265 54.273 27.4611 54.0259 27.3404 53.7459C27.2241 53.4616 27.166 53.1598 27.166 52.8405C27.166 52.5212 27.2241 52.2194 27.3404 51.935C27.4566 51.6507 27.6198 51.3992 27.8299 51.1805C28.04 50.9574 28.2836 50.7825 28.5607 50.6556C28.8379 50.5288 29.1374 50.4653 29.4593 50.4653C29.8527 50.4653 30.2192 50.5594 30.559 50.7475C30.8987 50.9356 31.1938 51.2199 31.4441 51.6004L30.7333 52.0531C30.5634 51.7907 30.369 51.6004 30.1499 51.4823C29.9309 51.3598 29.7007 51.2986 29.4593 51.2986C29.1866 51.2986 28.9407 51.3686 28.7217 51.5086C28.5071 51.6485 28.335 51.8366 28.2054 52.0728C28.0802 52.3047 28.0176 52.5606 28.0176 52.8405C28.0176 53.033 28.0556 53.2189 28.1316 53.3982C28.2076 53.5775 28.3104 53.7394 28.4401 53.8837C28.5742 54.0237 28.7284 54.1352 28.9027 54.2184C29.0771 54.3015 29.2626 54.343 29.4593 54.343C29.7454 54.343 29.9734 54.3058 30.1432 54.2315C30.3176 54.1571 30.4651 54.0303 30.5858 53.8509V53.5491H29.8281V52.7749H31.4374V54.0609C31.2452 54.4502 30.9859 54.7323 30.6596 54.9073C30.3332 55.0823 29.9331 55.1697 29.4593 55.1697Z" fill="#008FE8"/>
<path d="M21.818 51.2046H20.5047V55.1697H19.7088V51.2046H18.3955V50.4653H21.818V51.2046Z" fill="#008FE8"/>
<path d="M12.4068 51.2046H11.0936V55.1697H10.2976V51.2046H8.98438V50.4653H12.4068V51.2046Z" fill="#008FE8"/>
<path d="M0 37.2075L4.27807 34V68H0V37.2075Z" fill="#008FE8"/>
<path d="M8.55664 56.4528H12.8347V67.9999H8.55664V56.4528Z" fill="#008FE8"/>
<path d="M27.166 56.4528H31.4441V67.9999H27.166V56.4528Z" fill="#008FE8"/>
<path d="M35.7217 34L39.9998 37.2075V68H35.7217V34Z" fill="#008FE8"/>
<path d="M27.166 25.6604L31.4441 29.5094V49.1824H27.166V25.6604Z" fill="#008FE8"/>
<path d="M12.834 25.6604L8.55591 29.5094V49.1824H12.834V25.6604Z" fill="#008FE8"/>
<path d="M17.1123 56.4528H22.8877V67.9999H17.1123V56.4528Z" fill="#008FE8"/>
<path d="M17.1123 14.327H18.9305L20 13.2578L21.0695 14.327H22.8877V49.1823H17.1123V14.327Z" fill="#008FE8"/>
<path d="M37.3174 7.27098C35.1299 4.97691 32.4671 3.14539 29.4992 1.89343C26.5314 0.641467 23.3236 -0.00340483 20.081 1.35192e-05C16.8384 0.00343187 13.6321 0.655065 10.6671 1.91328C7.70215 3.1715 5.04359 5.00863 2.86133 7.3073L3.52156 7.88305C5.62028 5.67238 8.17705 3.90558 11.0285 2.69554C13.88 1.48549 16.9635 0.858809 20.082 0.855522C23.2005 0.852234 26.2854 1.47242 29.1396 2.67645C31.9939 3.88048 34.5547 5.64188 36.6585 7.84812L37.3174 7.27098Z" fill="#008FE8"/>
<path d="M33.675 10.913C32.0269 8.9018 29.952 7.28221 27.6006 6.17145C25.2492 5.06068 22.6801 4.48655 20.0794 4.49062C17.4787 4.49469 14.9114 5.07686 12.5635 6.19498C10.2156 7.3131 8.14575 8.93918 6.50391 10.9555L7.16759 11.4956C8.72934 9.57765 10.6982 8.0309 12.9315 6.96734C15.1649 5.90377 17.6069 5.35001 20.0807 5.34613C22.5545 5.34226 24.9983 5.88838 27.2349 6.94495C29.4716 8.00152 31.4453 9.5421 33.013 11.4551L33.675 10.913Z" fill="#008FE8"/>
<path d="M30.1718 14.4142C28.9925 12.8555 27.467 11.592 25.7157 10.7234C23.9645 9.85479 22.0353 9.40477 20.0803 9.40884C18.1254 9.41291 16.1981 9.87096 14.4504 10.7469C12.7028 11.6228 11.1826 12.8926 10.0098 14.4561L10.6945 14.9694C11.7878 13.5119 13.2049 12.3282 14.834 11.5117C16.4631 10.6952 18.2597 10.2682 20.0821 10.2644C21.9045 10.2606 23.7029 10.6801 25.3354 11.4898C26.9679 12.2996 28.3899 13.4773 29.4893 14.9303L30.1718 14.4142Z" fill="#008FE8"/>
</svg>
